<?xml version="1.0" encoding="UTF-8"?>
<!-- Created with Inkscape (http://www.inkscape.org/) -->
<svg width="129.48mm" height="28.667mm" version="1.1" viewBox="0 0 458.77 101.58" xmlns="http://www.w3.org/2000/svg" xmlns:cc="http://creativecommons.org/ns#" xmlns:dc="http://purl.org/dc/elements/1.1/" xmlns:rdf="http://www.w3.org/1999/02/22-rdf-syntax-ns#">
 <metadata>
  <rdf:RDF>
   <cc:Work rdf:about="">
    <dc:format>image/svg+xml</dc:format>
    <dc:type rdf:resource="http://purl.org/dc/dcmitype/StillImage"/>
    <dc:title/>
   </cc:Work>
  </rdf:RDF>
 </metadata>
 <flowRoot transform="translate(-.0065765)" fill="#000000" font-family="sans-serif" letter-spacing="0px" stroke-width="1px" word-spacing="0px" style="line-height:0.01%" xml:space="preserve"><flowRegion><rect x="11.202" y="126.02" width="99.294" height="43.791"/></flowRegion><flowPara font-size="40px" style="line-height:1.25">sdsdffds</flowPara></flowRoot>
 <g>
  <g transform="translate(-85.404,-123.33)">
   <g transform="translate(-54.286,-171.43)">
    <g fill="#364121" fill-opacity=".99216">
     <path d="m166.02 350.82c3.52 0 6.96-0.64 10-1.84 4.72-1.84 8-4.88 9.36-8.64 0.56-1.68-0.32-3.52-2-4.08s-3.52 0.32-4.08 2c-0.64 1.92-2.72 3.68-5.6 4.8-3.28 1.2-7.28 1.6-11.12 1.12-3.04-0.48-8.8-2-12.56-7.04l37.92-13.04c1.36-0.48 2.24-1.76 2.16-3.12-0.16-5.92-1.28-10.96-3.44-15.04-2-3.92-4.8-6.88-8.4-8.8-3.52-1.92-7.76-2.72-12.24-2.24-4.08 0.48-8.24 1.92-12 4.32-4.32 2.72-7.92 6.4-10.4 10.64-2.8 4.72-4.08 10.08-3.92 15.52 0.16 3.76 0.88 7.2 2.16 10.32l0.48 1.04c1.2 2.48 2.72 4.64 4.56 6.56 3.84 3.84 8.96 6.32 14.8 7.2 1.44 0.16 2.88 0.32 4.32 0.32zm2.56-49.6c2.4 0 4.72 0.48 6.72 1.52 4.8 2.64 7.6 8.16 8.24 16.08l-36.4 12.48c-0.56-1.76-0.96-3.84-1.04-6.24-0.32-8.16 3.92-15.76 11.28-20.4 3.68-2.32 7.6-3.44 11.2-3.44z"/>
     <path d="m199.98 350.98c1.52 0 2.88-1.12 3.12-2.64 0-0.08 1.28-8.32 4-16.4 3.04-9.12 6.8-14.56 10-14.56 0.56 0 1.2 0.08 2 0.96 1.2 1.36 3.36 5.36 3.68 16.48 0.24 6.64-0.32 12.64-0.32 12.64-0.16 1.76 1.12 3.36 2.88 3.52s3.28-1.12 3.44-2.88c0.08-0.24 0.64-6.32 0.4-13.44-0.08-4.24-0.48-8-1.12-11.12-0.96-4.24-2.32-7.36-4.24-9.44-1.76-2.08-4.08-3.12-6.64-3.12-3.92-0.08-7.36 2.16-10.4 6.56-1.68 2.48-3.28 5.6-4.72 9.52l-0.8-15.2c-0.08-1.84-1.6-3.12-3.36-3.04s-3.12 1.6-3.04 3.36l1.92 35.76c0.08 1.68 1.36 2.96 2.96 3.04z"/>
     <path d="m253.04 350.98c2.48 0 4.96-0.4 7.2-1.12 3.68-1.36 6.32-3.6 7.44-6.4 0.56-1.68-0.24-3.52-1.92-4.16-1.68-0.56-3.52 0.24-4.16 1.92-0.32 0.96-1.68 1.92-3.52 2.56-2.24 0.8-5.04 1.04-7.68 0.56-3.04-0.4-10.16-2.48-10.56-11.44-0.16-4.24 1.6-8.88 4.56-11.92 1.52-1.68 4.24-3.6 8-3.6 1.92 0 3.2 0.4 3.92 1.2 1.44 1.76 0.8 5.52 0.56 7.12-0.08 0.4-0.16 0.8-0.16 1.12-0.16 1.76 1.2 3.28 2.96 3.44s3.28-1.2 3.44-2.96c0-0.08 0.08-0.4 0.08-0.64 0.4-2.48 1.36-8.24-2.08-12.24-1.92-2.32-4.88-3.44-8.72-3.44-4.8 0-9.2 1.92-12.64 5.52-4.16 4.32-6.56 10.72-6.32 16.64 0.24 5.04 2.08 9.36 5.28 12.48 2.8 2.64 6.48 4.4 10.64 5.12 1.28 0.16 2.48 0.24 3.68 0.24z"/>
     <path d="m288.6 351.06c7.44-0.16 11.76-3.28 14.08-5.84 2.88-3.2 4.48-7.52 4.4-12.08 0-4.08-1.28-7.92-3.6-10.8-2.56-3.36-6.24-5.12-10.4-5.12-1.76 0-3.2 1.36-3.2 3.2 0 1.76 1.44 3.2 3.2 3.2 4.96 0 7.52 4.8 7.6 9.52 0.08 5.2-3.12 11.36-12.16 11.52-3.28 0.08-5.84-1.36-7.44-4.16-2.88-4.96-2.56-13.28 0.56-18.56 1.28-2.08 3.52-4.56 7.12-4.48 1.76 0.08 3.28-1.28 3.36-3.04 0-1.76-1.36-3.28-3.12-3.36-5.2-0.16-9.76 2.56-12.8 7.6-4.4 7.36-4.72 18.08-0.64 25.04 2.72 4.8 7.28 7.36 12.72 7.36z"/>
     <path d="m340.23 311.06c-1.52 0-2.88 1.12-3.12 2.64 0 0.08-1.28 8.32-4 16.4-3.04 9.12-6.8 14.56-10 14.56-0.56 0-1.2-0.08-2-0.96-1.2-1.36-3.36-5.36-3.68-16.48-0.24-6.64 0.32-12.64 0.32-12.64 0.16-1.76-1.12-3.36-2.88-3.52s-3.28 1.12-3.44 2.88c-0.08 0.24-0.64 6.32-0.4 13.44 0.08 4.24 0.48 8 1.12 11.12 0.96 4.24 2.32 7.36 4.24 9.44 1.76 2.08 4.08 3.12 6.64 3.12 3.92 0.08 7.36-2.16 10.4-6.56 1.68-2.48 3.28-5.6 4.72-9.52l0.8 15.2c0.08 1.84 1.6 3.12 3.36 3.04s3.12-1.6 3.04-3.36l-1.92-35.76c-0.08-1.68-1.36-2.96-2.96-3.04z"/>
     <path d="m355.29 350.98c1.52 0 2.88-1.12 3.12-2.72 0-0.08 1.28-8.32 3.92-16.4 1.44-4.56 3.04-8.24 4.72-10.72 1.2-1.76 2.96-3.76 4.72-3.76h0.08c0.32 0 1.44 0 2.72 2.48 0.96 2 1.68 4.96 2.16 8.56 0.24 1.76 1.84 3.04 3.6 2.8s2.96-1.84 2.72-3.6c-0.56-4.4-1.44-7.92-2.8-10.56-2.48-5.04-5.92-6.08-8.4-6.08h-0.08c-3.76 0-7.12 2.24-10 6.64-1.6 2.32-3.04 5.28-4.4 8.88l-0.72-14.64c-0.08-1.76-1.6-3.12-3.36-3.04s-3.12 1.6-3.04 3.36l1.84 35.76c0.08 1.68 1.36 2.96 3.04 3.04z"/>
     <path d="m416.67 338.5c-0.08-4.48-0.32-8.4-0.64-11.6-0.48-4.32-1.12-7.2-2.16-9.12-2.08-4-5.6-6.32-9.92-6.64-2.56-0.24-5.28 0.32-7.84 1.68-2.48 1.2-4.72 3.12-6.48 5.44-1.04 1.36-0.72 3.36 0.64 4.48 1.44 1.04 3.44 0.72 4.48-0.64 2.32-3.04 5.68-4.8 8.72-4.64 2.08 0.16 3.68 1.28 4.72 3.28 0.4 0.72 1.12 2.64 1.6 7.76-4.8-0.96-9.04-1.12-12.8-0.48-5.68 0.96-8.56 3.44-10 5.44-2.4 3.28-2.56 7.44-0.32 10.8 1.92 2.96 5.44 5.12 9.84 6.16 2.08 0.48 4.32 0.72 6.8 0.72 2.08 0 4.4-0.16 6.8-0.56-0.08 1.36-0.08 2.16-0.08 2.16-0.08 1.76 1.28 3.28 3.04 3.36h0.16c1.68 0 3.12-1.36 3.2-3.04 0-0.32 0.32-6.96 0.24-14.56zm-24.64 2.32c-0.8-1.2-0.72-2.48 0.08-3.6 2.08-2.8 8.4-4.4 18.08-2 0 1.04 0 2.16 0.08 3.36v5.52c-9.92 1.76-16.24-0.32-18.24-3.28z"/>
     <path d="m467.66 371.38c-0.08-3.28-0.72-6.08-1.92-8.48-1.12-2.24-2.72-4.08-4.8-5.44-3.92-2.64-9.28-3.44-15.92-2.56-1.68 0.24-3.2 0.56-4.48 0.88l-0.48-6.32c6.16-0.56 9.92-3.2 12-5.44 2.96-3.12 4.56-7.28 4.48-11.76 0-3.84-1.28-7.6-3.6-10.4-2.64-3.12-6.32-4.88-10.4-4.88-1.76 0-3.2 1.44-3.2 3.2s1.44 3.2 3.2 3.2c4.96 0 7.6 4.48 7.6 8.96 0.08 4.88-3.12 10.64-12.16 10.8-3.44 0.08-5.92-1.28-7.6-4.16-2.64-4.56-2.4-12 0.56-16.88 1.28-2.16 3.6-4.64 7.28-4.56 1.76 0.08 3.28-1.28 3.36-3.04 0-1.76-1.36-3.28-3.12-3.36-2.8-0.08-5.44 0.64-7.76 2.08-2.08 1.36-3.84 3.2-5.28 5.52-1.92 3.36-3.12 7.44-3.28 11.68-0.16 4.32 0.8 8.56 2.72 11.76 2 3.52 5.04 5.92 8.8 6.88l0.72 11.2c0.08 0.96 0.64 1.92 1.52 2.48 0.8 0.48 1.84 0.64 2.8 0.24 0.08 0 3.28-1.2 7.36-1.76 3.44-0.48 8.16-0.56 11.36 1.6 2.48 1.6 3.68 4.48 3.84 8.72 0.24 8.48-5.12 12.96-8.4 14.96-7.04 4.24-16.48 4.64-23.04 0.96-4.96-2.88-7.6-7.68-7.6-14.08 0-1.76-1.44-3.2-3.2-3.2s-3.2 1.44-3.2 3.2c0 8.72 3.84 15.68 10.88 19.6 3.84 2.24 8.48 3.36 13.44 3.36h1.28c5.28-0.24 10.48-1.76 14.72-4.4 3.6-2.16 6.4-4.96 8.4-8.24 2.24-3.68 3.28-7.84 3.12-12.32zm-22.56-56.64c0.56 0.48 1.36 0.72 2.08 0.72 0.88 0 1.76-0.32 2.4-1.12l7.04-8.16c1.2-1.36 1.04-3.36-0.32-4.48-1.36-1.2-3.36-1.04-4.48 0.32l-7.04 8.16c-1.2 1.36-1.04 3.36 0.32 4.56z"/>
     <path d="m481.2 350.66c2.4 0 4.8-0.4 6.88-1.28 3.28-1.36 5.6-3.6 6.56-6.4 0.56-1.68-0.4-3.44-2.08-4s-3.44 0.32-4 2c-0.32 0.96-1.36 1.84-2.88 2.48-1.84 0.72-4.16 0.96-6.32 0.64-1.6-0.16-4.32-0.88-6.4-3.04l22.64-8.08c1.28-0.48 2.16-1.76 2.08-3.12-0.08-4.08-0.88-7.6-2.32-10.48-1.44-2.8-3.36-4.88-5.92-6.24-2.4-1.28-5.28-1.84-8.24-1.52-2.72 0.32-5.52 1.28-8 2.88-2.96 1.84-5.44 4.4-7.2 7.44-1.92 3.28-2.8 7.04-2.72 10.88 0.16 2.8 0.72 5.36 1.68 7.68l0.24 0.4c0.8 1.76 1.84 3.28 3.04 4.56 2.64 2.72 6.16 4.48 10.24 5.04 0.88 0.08 1.84 0.16 2.72 0.16zm1.68-32.72c1.28 0 2.48 0.32 3.52 0.88 2.64 1.36 4.24 4.48 4.72 8.96l-21.12 7.52c-0.16-0.88-0.24-1.76-0.32-2.72-0.24-6.08 3.44-10.48 6.88-12.72 2.08-1.28 4.32-1.92 6.32-1.92z"/>
    </g>
    <path d="m506.77 350.98c1.68 0 3.12-1.28 3.2-2.96 0.72-11.76 1.12-21.36 1.36-29.2 0.72 3.92 1.68 7.92 3.04 11.52 1.6 4.08 3.52 7.2 5.92 9.52 3.04 2.8 6.64 4.24 10.72 4.24 4.48 0 8.32-1.44 11.44-4.16 2.48-2.32 4.56-5.52 6-9.6 1.6-4.4 2.48-9.44 2.96-14.16 0.32 8.32 0.16 18.88-0.56 31.44-0.08 1.76 1.28 3.28 3.04 3.36s3.28-1.28 3.36-3.04c0.88-15.68 0.96-28.32 0.16-37.52-0.32-3.84-0.8-6.96-1.36-9.28-0.72-2.72-1.6-4.32-2.8-5.28-1.04-0.8-2.4-0.96-3.6-0.56-1.2 0.48-2.16 1.36-2.72 2.8-0.24 0.72-0.48 1.6-0.64 2.8-0.32 1.84-0.48 4.24-0.64 7.04-0.4 6.24-0.96 14-3.2 20.16-2.32 6.56-6 9.6-11.44 9.6-2.96 0-7.36-1.04-10.64-9.68-2.48-6.24-3.36-14.08-4.16-20.4-0.32-2.72-0.56-5.04-0.96-6.88-0.4-2.08-0.96-4.4-2.96-5.36-1.2-0.56-2.56-0.48-3.76 0.24-2 1.12-2.48 3.6-2.88 7.92-0.32 3.36-0.48 8.08-0.64 14.08-0.32 7.92-0.64 17.84-1.44 30-0.08 1.76 1.2 3.28 2.96 3.36z" fill="#242b1b"/>
    <path d="m581.98 350.66c2.4 0 4.8-0.4 6.88-1.28 3.28-1.36 5.6-3.6 6.56-6.4 0.56-1.68-0.4-3.44-2.08-4s-3.44 0.32-4 2c-0.32 0.96-1.36 1.84-2.88 2.48-1.84 0.72-4.16 0.96-6.32 0.64-1.6-0.16-4.32-0.88-6.4-3.04l22.64-8.08c1.28-0.48 2.16-1.76 2.08-3.12-0.08-4.08-0.88-7.6-2.32-10.48-1.44-2.8-3.36-4.88-5.92-6.24-2.4-1.28-5.28-1.84-8.24-1.52-2.72 0.32-5.52 1.28-8 2.88-2.96 1.84-5.44 4.4-7.2 7.44-1.92 3.28-2.8 7.04-2.72 10.88 0.16 2.8 0.72 5.36 1.68 7.68l0.24 0.4c0.8 1.76 1.84 3.28 3.04 4.56 2.64 2.72 6.16 4.48 10.24 5.04 0.88 0.08 1.84 0.16 2.72 0.16zm1.68-32.72c1.28 0 2.48 0.32 3.52 0.88 2.64 1.36 4.24 4.48 4.72 8.96l-21.12 7.52c-0.16-0.88-0.24-1.76-0.32-2.72-0.24-6.08 3.44-10.48 6.88-12.72 2.08-1.28 4.32-1.92 6.32-1.92z" fill="#242b1b"/>
   </g>
  </g>
 </g>
 <g display="none" fill="#000000" font-family="'Clear Sans'" letter-spacing="0px" stroke-width="1px" word-spacing="0px">
  <flowRoot transform="translate(189.67 -229.25)" style="line-height:0.01%" xml:space="preserve"><flowRegion><rect x="20.415" y="291.43" width="230.69" height="94.929"/></flowRegion><flowPara font-family="'Clear Sans'" font-size="35px" style="font-feature-settings:normal;font-variant-caps:normal;font-variant-ligatures:normal;font-variant-numeric:normal;line-height:1.25">One</flowPara></flowRoot>
  <flowRoot transform="translate(31.991 -124.49)" style="line-height:0.01%" xml:space="preserve"><flowRegion><rect x="301.12" y="190.38" width="181.69" height="79.617"/></flowRegion><flowPara font-family="'Clear Sans'" font-size="35px" style="font-feature-settings:normal;font-variant-caps:normal;font-variant-ligatures:normal;font-variant-numeric:normal;line-height:1">Another</flowPara></flowRoot>
  <flowRoot transform="translate(52.835 -108.87)" style="line-height:0.01%" xml:space="preserve"><flowRegion><rect x="-48.113" y="170.44" width="217.92" height="83.962"/></flowRegion><flowPara font-family="'Clear Sans'" font-size="35px" opacity=".99" style="font-feature-settings:normal;font-variant-caps:normal;font-variant-ligatures:normal;font-variant-numeric:normal;line-height:1.25">Encouraging</flowPara></flowRoot>
 </g>
 <g stroke-width="1px">
  <g transform="translate(52.621 -108.87)" aria-label="Encouraging">
   <path d="m-45.003 200.27v-23.652h14.458v2.854h-11.296v6.9043h9.6558v2.8711h-9.6558v8.1519h11.296v2.8711z" opacity=".99" style="font-feature-settings:normal;font-variant-caps:normal;font-variant-ligatures:normal;font-variant-numeric:normal"/>
   <path d="m-14.258 200.27v-10.562q0-2.5635-0.25635-3.418t-0.8374-1.2305q-0.58106-0.39307-1.6919-0.39307-1.1279 0-2.6318 0.85449-1.5039 0.8545-2.9053 2.085v12.664h-2.9395v-17.927h2.9395v2.666q1.2476-1.2476 2.9053-2.2046 1.6577-0.97412 3.3325-0.97412 2.5977 0 3.811 1.4868 1.2134 1.4697 1.2134 4.9902v11.963z" opacity=".99" style="font-feature-settings:normal;font-variant-caps:normal;font-variant-ligatures:normal;font-variant-numeric:normal"/>
   <path d="m7.8389 197.5q-0.8374 1.4355-2.3242 2.3755-1.4868 0.92285-4.1016 0.92285-3.9478 0-5.9473-2.3755-1.9995-2.3926-1.9995-7.0752t1.9824-7.0923q1.9824-2.4268 5.8447-2.4268 4.4263 0 6.3062 3.2812l-2.4097 1.4697q-0.6665-1.0425-1.5723-1.6235-0.88867-0.58106-2.3584-0.58106-2.5806 0-3.6743 1.8799-1.0767 1.8628-1.0767 5.1611 0 2.5122 0.5127 3.9136 0.5127 1.4014 1.5894 2.1533 1.0938 0.75195 2.7686 0.75195 1.4355 0 2.3413-0.52979 0.90576-0.54687 1.709-1.6748z" opacity=".99" style="font-feature-settings:normal;font-variant-caps:normal;font-variant-ligatures:normal;font-variant-numeric:normal"/>
   <path d="m26.877 191.34q0 4.6655-2.0166 7.0581-1.9995 2.3926-5.8447 2.3926t-5.8789-2.3584q-2.0337-2.3755-2.0337-7.0923 0-4.8022 2.0337-7.1606 2.0508-2.3584 5.8789-2.3584 3.8623 0 5.8618 2.4097 1.9995 2.3926 1.9995 7.1094zm-3.042 0q0-3.6572-1.2134-5.315-1.1963-1.6577-3.606-1.6577-2.478 0-3.6743 1.6748-1.1963 1.6577-1.1963 5.2979 0 3.5034 1.145 5.1953 1.1621 1.6919 3.7256 1.6919 2.4438 0 3.623-1.6748 1.1963-1.6748 1.1963-5.2124z" opacity=".99" style="font-feature-settings:normal;font-variant-caps:normal;font-variant-ligatures:normal;font-variant-numeric:normal"/>
   <path d="m42.89 200.27v-2.666q-1.3672 1.3672-3.0078 2.29-1.6406 0.90576-3.2129 0.90576-1.7944 0-2.9224-0.66651-1.1108-0.68359-1.6235-2.0337-0.49561-1.3672-0.49561-3.7769v-11.98h2.9395v10.579q0 2.5635 0.25635 3.418 0.27344 0.85449 0.85449 1.2476 0.58106 0.37598 1.6919 0.37598t2.6147-0.85449q1.5039-0.87158 2.9053-2.085v-12.681h2.9395v17.927z" opacity=".99" style="font-feature-settings:normal;font-variant-caps:normal;font-variant-ligatures:normal;font-variant-numeric:normal"/>
   <path d="m61.347 185.24q-0.47852-0.20508-1.3672-0.20508-1.3159 0-2.5464 0.61523-1.2134 0.59815-2.8369 2.2217v12.39h-2.9395v-17.927h2.9395v2.9053q1.2305-1.2476 2.5806-2.2046 1.3672-0.97413 3.0249-0.97413 1.1108 0 1.7773 0.35889z" opacity=".99" style="font-feature-settings:normal;font-variant-caps:normal;font-variant-ligatures:normal;font-variant-numeric:normal"/>
   <path d="m75.378 200.27v-2.2388q-1.3672 1.1963-2.7515 1.9824-1.3843 0.78614-3.1274 0.78614-2.5635 0-3.9648-1.5552-1.3843-1.5723-1.3843-4.0161 0-1.8457 0.71777-3.0591 0.73486-1.2305 2.1021-1.9312 1.3843-0.71778 3.999-1.0254l4.4092-0.39306v-0.87159q0-2.0679-1.1621-2.8198-1.145-0.75196-3.1787-0.75196-1.8115 0-2.8027 0.63233-0.97412 0.63232-1.4014 1.3672l-2.4097-1.4697q0.82031-1.4868 2.4951-2.273 1.6919-0.80322 4.187-0.80322 3.8623 0 5.5371 1.4014 1.6748 1.4014 1.6748 4.8535v12.185zm0-9.0918-2.8711 0.27344q-2.9224 0.25634-4.1187 1.145-1.1963 0.87158-1.1963 2.5635 0 1.6064 0.80322 2.3071 0.80322 0.70068 2.4097 0.70068 0.6665 0 1.3159-0.23926 0.64942-0.25635 1.2817-0.61523 0.63232-0.37598 1.2134-0.83741 0.59814-0.47851 1.1621-0.92285z" opacity=".99" style="font-feature-settings:normal;font-variant-caps:normal;font-variant-ligatures:normal;font-variant-numeric:normal"/>
   <path d="m98.244 199.87q0 3.606-1.7944 5.3662-1.7773 1.7774-5.9131 1.7774-3.9478 0-6.5112-1.6748l1.0938-2.3755q2.3071 1.6064 5.4175 1.6064 2.5122 0 3.623-1.0596 1.1279-1.0425 1.1279-3.4522v-2.102q-1.0083 0.97412-2.4097 1.6406-1.4014 0.6665-3.042 0.6665-3.2983 0-5.0244-2.3413-1.7261-2.3584-1.7261-6.8018 0-4.375 1.9312-6.836 1.9312-2.4609 5.2808-2.4609 2.7173 0 4.9902 1.9824v-1.4697h2.9565zm-2.9565-13.501q-2.3413-1.9312-4.6143-1.9312-2.2388 0-3.4009 1.7432-1.145 1.7432-1.145 4.8706 0 3.4522 1.0767 5.0244 1.0767 1.5552 3.1958 1.5552 2.4609 0 4.8877-2.3071z" opacity=".99" style="font-feature-settings:normal;font-variant-caps:normal;font-variant-ligatures:normal;font-variant-numeric:normal"/>
   <path d="m107.49 177.79q0 1.0254-0.46142 1.4014-0.46143 0.35888-1.4697 0.35888-1.0767 0-1.4868-0.46142-0.41015-0.46143-0.41015-1.2988 0-0.90576 0.44433-1.3159 0.44434-0.42725 1.4526-0.42725 1.0425 0 1.4868 0.41016 0.44433 0.39307 0.44433 1.333zm-3.4009 22.473v-17.927h2.9395v17.927z" opacity=".99" style="font-feature-settings:normal;font-variant-caps:normal;font-variant-ligatures:normal;font-variant-numeric:normal"/>
   <path d="m124.1 200.27v-10.562q0-2.5635-0.25634-3.418-0.25635-0.85449-0.83741-1.2305-0.58105-0.39307-1.6919-0.39307-1.1279 0-2.6318 0.85449-1.5039 0.8545-2.9053 2.085v12.664h-2.9394v-17.927h2.9394v2.666q1.2476-1.2476 2.9053-2.2046 1.6577-0.97412 3.3325-0.97412 2.5977 0 3.811 1.4868 1.2134 1.4697 1.2134 4.9902v11.963z" opacity=".99" style="font-feature-settings:normal;font-variant-caps:normal;font-variant-ligatures:normal;font-variant-numeric:normal"/>
   <path d="m146.98 199.87q0 3.606-1.7944 5.3662-1.7774 1.7774-5.9131 1.7774-3.9478 0-6.5112-1.6748l1.0938-2.3755q2.3071 1.6064 5.4175 1.6064 2.5122 0 3.623-1.0596 1.1279-1.0425 1.1279-3.4522v-2.102q-1.0083 0.97412-2.4097 1.6406-1.4014 0.6665-3.042 0.6665-3.2983 0-5.0244-2.3413-1.7261-2.3584-1.7261-6.8018 0-4.375 1.9312-6.836 1.9312-2.4609 5.2808-2.4609 2.7173 0 4.9902 1.9824v-1.4697h2.9565zm-2.9565-13.501q-2.3413-1.9312-4.6143-1.9312-2.2388 0-3.4009 1.7432-1.145 1.7432-1.145 4.8706 0 3.4522 1.0767 5.0244 1.0767 1.5552 3.1958 1.5552 2.4609 0 4.8877-2.3071z" opacity=".99" style="font-feature-settings:normal;font-variant-caps:normal;font-variant-ligatures:normal;font-variant-numeric:normal"/>
  </g>
  <g transform="translate(189.57 -228.43)" aria-label="One">
   <path d="m41.691 309.43q0 6.3745-2.4097 9.3482-2.3926 2.9736-7.2119 2.9736-4.8877 0-7.2632-3.0249-2.3584-3.0249-2.3584-9.2969 0-6.2207 2.3413-9.2627 2.3413-3.0591 7.2803-3.0591 4.8706 0 7.2461 2.9907 2.3755 2.9907 2.3755 9.3311zm-3.3154 0q0-4.9048-1.4868-7.2119-1.4697-2.3071-4.8193-2.3071t-4.8364 2.3071q-1.4697 2.3071-1.4697 7.2119 0 4.939 1.4868 7.229 1.5039 2.29 4.8193 2.29 3.2983 0 4.8022-2.273 1.5039-2.273 1.5039-7.2461z" style="font-feature-settings:normal;font-variant-caps:normal;font-variant-ligatures:normal;font-variant-numeric:normal"/>
   <path d="m57.892 321.26v-10.562q0-2.5635-0.25635-3.418-0.25635-0.85449-0.8374-1.2305-0.58106-0.39306-1.6919-0.39306-1.1279 0-2.6318 0.85449t-2.9053 2.085v12.664h-2.9395v-17.927h2.9395v2.666q1.2476-1.2476 2.9053-2.2046 1.6577-0.97412 3.3325-0.97412 2.5977 0 3.811 1.4868 1.2134 1.4697 1.2134 4.9902v11.963z" style="font-feature-settings:normal;font-variant-caps:normal;font-variant-ligatures:normal;font-variant-numeric:normal"/>
   <path d="m68.659 312.64q0 3.5547 1.2134 5.0757 1.2134 1.5039 3.8965 1.5039 1.1963 0 2.1021-0.4956 0.90576-0.5127 1.7432-1.6406l2.4268 1.5039q-1.0254 1.5381-2.4951 2.3755-1.4697 0.82031-3.9819 0.82031-3.999 0-5.9814-2.3242-1.9653-2.3242-1.9653-7.0239 0-4.9219 1.9141-7.2632 1.9312-2.3584 5.8106-2.3584 3.4863 0 5.2295 2.0166 1.7432 1.9995 1.7432 6.1694v1.6406zm8.7842-2.3071q-0.03418-2.4097-1.0254-3.7427-0.97412-1.333-3.1787-1.333-2.1021 0-3.1616 1.2134-1.0425 1.1963-1.3843 3.8623z" style="font-feature-settings:normal;font-variant-caps:normal;font-variant-ligatures:normal;font-variant-numeric:normal"/>
  </g>
  <g transform="translate(32.805 -122.94)" aria-label="Another">
   <path d="m301.99 215.83 8.0835-23.652h4.1016l8.0835 23.652h-3.3325l-2.0508-6.1524h-9.6387l-2.0166 6.1524zm6.2036-9.0234h7.6904l-3.8452-11.519z" style="font-feature-settings:normal;font-variant-caps:normal;font-variant-ligatures:normal;font-variant-numeric:normal"/>
   <path d="m337.3 215.83v-10.562q0-2.5635-0.25635-3.418-0.25635-0.85449-0.8374-1.2305-0.58106-0.39306-1.6919-0.39306-1.1279 0-2.6318 0.85449-1.5039 0.85449-2.9053 2.085v12.664h-2.9395v-17.927h2.9395v2.666q1.2476-1.2476 2.9053-2.2046 1.6577-0.97412 3.3325-0.97412 2.5976 0 3.811 1.4868 1.2134 1.4697 1.2134 4.9902v11.963z" style="font-feature-settings:normal;font-variant-caps:normal;font-variant-ligatures:normal;font-variant-numeric:normal"/>
   <path d="m360.79 206.91q0 4.6655-2.0166 7.0581-1.9995 2.3926-5.8447 2.3926t-5.8789-2.3584q-2.0337-2.3755-2.0337-7.0923 0-4.8022 2.0337-7.1606 2.0508-2.3584 5.8789-2.3584 3.8623 0 5.8618 2.4097 1.9995 2.3926 1.9995 7.1094zm-3.042 0q0-3.6572-1.2134-5.3149-1.1963-1.6577-3.606-1.6577-2.478 0-3.6743 1.6748-1.1963 1.6577-1.1963 5.2978 0 3.5034 1.145 5.1953 1.1621 1.6919 3.7256 1.6919 2.4438 0 3.623-1.6748 1.1963-1.6748 1.1963-5.2124z" style="font-feature-settings:normal;font-variant-caps:normal;font-variant-ligatures:normal;font-variant-numeric:normal"/>
   <path d="m374.64 215.83q-1.709 0.52978-3.3838 0.52978-2.7344 0-3.9307-1.4355-1.1792-1.4356-1.1792-4.5117v-10.049h-2.5635v-2.4609h2.5635v-4.9902h2.9394v4.9902h4.5459v2.4609h-4.5459v9.4849q0 2.1704 0.42725 3.1104 0.44434 0.93994 1.9482 0.93994 1.2988 0 2.4097-0.47851z" style="font-feature-settings:normal;font-variant-caps:normal;font-variant-ligatures:normal;font-variant-numeric:normal"/>
   <path d="m389.39 215.83v-10.562q0-2.5635-0.25634-3.4009-0.23926-0.85449-0.82032-1.2476-0.58105-0.39306-1.709-0.39306t-2.6318 0.85449-2.9053 2.085v12.664h-2.9394v-25.447h2.9394v10.186q1.2476-1.2476 2.9053-2.2046 1.6577-0.97412 3.3325-0.97412 2.5977 0 3.811 1.4868 1.2134 1.4697 1.2134 4.9902v11.963z" style="font-feature-settings:normal;font-variant-caps:normal;font-variant-ligatures:normal;font-variant-numeric:normal"/>
   <path d="m400.15 207.21q0 3.5547 1.2134 5.0757 1.2134 1.5039 3.8965 1.5039 1.1963 0 2.102-0.49561 0.90576-0.5127 1.7432-1.6406l2.4268 1.5039q-1.0254 1.5381-2.4951 2.3755-1.4697 0.82031-3.9819 0.82031-3.999 0-5.9814-2.3242-1.9653-2.3242-1.9653-7.0239 0-4.9219 1.9141-7.2632 1.9312-2.3584 5.8106-2.3584 3.4863 0 5.2295 2.0166 1.7432 1.9995 1.7432 6.1694v1.6406zm8.7842-2.3071q-0.0342-2.4097-1.0254-3.7427-0.97413-1.333-3.1787-1.333-2.102 0-3.1616 1.2134-1.0425 1.1963-1.3843 3.8623z" style="font-feature-settings:normal;font-variant-caps:normal;font-variant-ligatures:normal;font-variant-numeric:normal"/>
   <path d="m426.16 200.81q-0.47851-0.20508-1.3672-0.20508-1.3159 0-2.5464 0.61524-1.2134 0.59814-2.8369 2.2217v12.39h-2.9395v-17.927h2.9395v2.9053q1.2305-1.2476 2.5806-2.2046 1.3672-0.97412 3.0249-0.97412 1.1108 0 1.7774 0.35889z" style="font-feature-settings:normal;font-variant-caps:normal;font-variant-ligatures:normal;font-variant-numeric:normal"/>
  </g>
 </g>
</svg>
